<svg width="96" height="96" xmlns="http://www.w3.org/2000/svg" xmlns:xlink="http://www.w3.org/1999/xlink" xml:space="preserve" overflow="hidden"><g transform="translate(-169 -22)"><path d="M201 53.887 201 41.523C201 37.3676 204.369 33.999 208.524 33.999 212.679 33.999 216.048 37.3676 216.048 41.523L216.048 53.856C222.885 49.6865 225.048 40.7639 220.878 33.9269 216.709 27.0898 207.786 24.9273 200.949 29.0968 194.112 33.2663 191.949 42.1889 196.119 49.0259 197.332 51.0149 199.006 52.6823 201 53.887Z" fill="#FFFFFF"/><path d="M204 41.524 204 84.215 203.989 84.215 200.277 67.5C199.705 65.0678 197.27 63.56 194.837 64.1321 192.448 64.6941 190.943 67.0592 191.445 69.462L196.874 93.891C197.105 94.9252 197.692 95.8454 198.532 96.491L208.532 104.181 208.532 111 234.766 111 234.766 106.476C234.766 100.067 242.004 99.576 242.004 87.476L242.004 71.19C242.007 68.1955 239.582 65.7655 236.587 65.7625 235.235 65.7612 233.931 66.2653 232.931 67.176 232.946 67.008 232.956 66.839 232.956 66.667 232.958 63.6709 230.531 61.2405 227.534 61.2386 226.131 61.2378 224.782 61.7805 223.771 62.753 223.112 59.8298 220.207 57.9946 217.284 58.654 214.807 59.2127 213.049 61.4141 213.052 63.953L213.052 41.524C213.052 39.0255 211.027 37 208.528 37 206.029 37 204.004 39.0255 204.004 41.524Z" fill="#FFFFFF"/></g></svg>